<?xml version="1.0" encoding="UTF-8"?>
<svg id="Layer_1" xmlns="http://www.w3.org/2000/svg" version="1.1" viewBox="0 0 160 160">
  <!-- Generator: Adobe Illustrator 29.4.0, SVG Export Plug-In . SVG Version: 2.1.0 Build 152)  -->
  <defs>
    <style>
      .st0 {
        fill: #363f4c;
      }

      .st1 {
        fill: #242f3e;
      }
    </style>
  </defs>
  <rect class="st1" x="-2.1" y="-2.6" width="167.4" height="162.6"/>
  <g>
    <path class="st0" d="M77.9,0c.1,3.2-1.3,6.4-.5,9.6.7-.9,2.6-3,2.7-4,.6,0,4.4-3.1,5.2-3.8s1.6-1.2,1.7-1.9h2.1c.1.6-.3.6-.7.8-3.2,1.9-9.1,6.5-10.4,9.9-2.2,9.6-2.7,19.5-3.9,29.2,2.4,1.5,4.6,3.9,7.2,5.2,4.2,2.2,10.1,4.2,14.6,6,7,2.8,14.1,5.4,21.2,8.3.5,0-.1-2.4-.1-2.8.1-3.6,2.1-8.2,2.3-11.8s-1.2-6.6-.9-8.7,2.1-5.3,2.7-7.2c1-3.5,1.4-7.5,2.5-10.9s1.2-2.5,1.6-4,2.3-9.8,1.9-11.3-1.1-1.6-1-2.6h.8c2.4,6.1,6.2,11.9,8.7,17.9s4.5,11.4,5.2,16.2,1.9,16.5-.9,21.2-3.1,3-4.2,4l-.2.8,14.3,3.2c2.3-.6,5-.9,7.2-1.7s5.5-3.3,8.5-4v1.1c-.5,0-.9.2-1.3.4-2.3,1.2-6.9,2.9-8.1,5.1-3.1,5.5-1.3,7.6-2.1,12.9s-.5,1.1-.6,1.8c-.4,2-.8,4-1.3,6l13.4,3.4v1.1c-4.8-.5-9.7-2.9-14.4-3.4s-4.2,0-6.3-.1c-3.5-.3-7.3-2-10.9-2.4,0,1.2.9,2.4.8,3.5s-1.7,6.1-2.2,7.4-.4.9-.9.8c.4-4.2,3.3-7.8,1.3-12-2.1,0-4.5-.5-6.5-.6s-3.5,1.2-5.5,1.4l2.6,5.7c-.7,1.5-1.6,11.8-2.1,12.2s-.8,0-.8,0c-.4-.4,2-10.6,1.9-12.2l-2-5.2c-1.2-1.6-1.7,3-1.9,3.7-3.6,13.4-7.9,27.5-9.8,41.3s-.7,17.3.6,26.7c.2,1.2.5,2.5.8,3.6h-1.1l-2.2-17.5c.6-17.9,5.7-35.1,10.2-52.2s1.2-4.7,1-4.7c-4.8,2.6-8.7,6.1-14.4,6.7-10.3,1-20.7.9-31,1.4s-12.7.7-18.9,3-4.1,2.9-6.5,3.6v.7c-.1,0,9.1,7.1,9.1,7.1.3.2,0,.8-.3.8-.6.1-9.3-7.6-10.1-7.4s-1,.7-1.3.9c-4.9,4-10.9,9.7-15.5,14.2-5.8,5.6-10.6,12.5-15.9,18.6v.6c5.9,5.2,11.9,10.3,17.8,15.6s5.1,4.1,7,6.7.8,1.2.8,2h-1.1c0-.8-.5-1.5-1-2.1s-2.3-2.6-3-3.4c-6-5.8-13.5-11.3-19.8-16.8s-1-.8-1.1-1.5L0,148v-1.3c.5,0,.7-.4,1.1-.7,9.5-8.6,17.1-19.2,25.5-28.8,8.6-6.8,16.2-16.7,26.2-21.5s1.3-.5,2.1-.5l-.8-.7c1.9-2.5,3.9-4.3,5.1-7.2,2-4.8,3.3-10.4,5.1-15.3l8.6-31.4h1.1c-.5-.7-.9-.3-.8-1.5.1-4,1.1-8.6,1.6-12.6s.4-6.1.8-9.1,1.7-6.7,1.5-7.5-1-1.1-1-1.9c0-2.3,1.2-5.7,1.3-8.2h.5ZM128.4,5.4c-.1,0-.7,0-.8,0-.4.3-1.3,8.1-1.7,9.4s-1.1,1.8-1.5,2.8c-1.3,3.8-1.7,9-3,13s-2.3,4.2-2.1,8.1.9,4.5.8,6.1c-.2,4.3-3.3,10.9-1.8,15.2s.9,1.7,1,1.8c.2.1.4,0,.6-.2.5-.5.9-1.4,1.6-1.8,2.2-1.4,9.6.3,12.4-.2,2.7-2.2,5.2-4,6.1-7.5s.6-15.6-.5-20.6-4.3-10-5.4-14.7c-1.2-1.4-5-11-5.8-11.5ZM73.6,92.3v-4.7c0-.2.5-2.6,1.1-2l-.3,6.7c4.5-.1,9,.2,13.5,0s17-.5,22.1-3.1c2.9-1.4,5.8-3.9,8.5-5.7.2-.6.3-1.2.3-1.8.5-5.9.1-12.3.5-18.2,0-1-1.4-2.6-2.2-3.1-11-4.8-22.6-8.4-33.5-13.3s-2.5-1-3.3-1.5-6.1-4.9-6.7-4.4l-10.4,37.1c-1.8,3.4-2.4,7.8-4,11.2s-3.3,3.5-4.1,5.3c0,.6,8.5-1.9,9.3-2,3-.4,6.2,0,9.2-.6ZM143.1,84.1c-.3-2.5.2-5.6,0-8.2h.8v8.4s.4.4.4.4h6.8c.5-2.8,1.8-5.8,2.1-8.7s-.4-5.7,0-7.9,2.1-3.1,2.1-4.7c-.3-.3-5.2,1-6.2,1-4.6-.2-11.1-3.2-16.1-3.7s-6.9-.2-10.2-.3c-1.8.4-2.4,1.9-2.5,3.6-.4,4.3-.4,9-.5,13.4s-.5,3.8-.3,5.8c.2.2,4.8-1.6,5.7-1.6,2.3,0,5.8.2,8,.5s9.6,2.7,10.1,2.4c0-.2-.3-.3-.3-.4Z"/>
    <path class="st0" d="M80.5,0c-.3,1.4-.6,2.8-.7,4.2s.2,1,.2,1.4c-2.1,0,0-4.4-.3-5.6h.8Z"/>
    <path class="st0" d="M0,4.3c21.3,5.9,42.6,11.9,63.9,17.8l.9.8L0,5.4v-1.1Z"/>
  </g>
</svg>