<?xml version="1.0" encoding="UTF-8"?>
<svg id="Layer_1" xmlns="http://www.w3.org/2000/svg" xmlns:xlink="http://www.w3.org/1999/xlink" xmlns:android="http://schemas.android.com/apk/res/android" xmlns:aapt="http://schemas.android.com/aapt" version="1.1" viewBox="0 0 27 57">
  <defs>
    <style>
      .st0 {
        fill: #323232;
      }

      .st1 {
        fill: url(#linear-gradient1);
      }

      .st2 {
        fill: #828282;
      }

      .st3 {
        fill: url(#radial-gradient);
      }

      .st4 {
        fill: url(#linear-gradient);
      }

      .st5 {
        fill: #ffce20;
      }

      .st6 {
        fill: #ef4e32;
      }
    </style>
    <radialGradient id="radial-gradient" cx="13.9" cy="7.2" fx="23.1" fy="7.2" r="9.2" gradientUnits="userSpaceOnUse">
      <stop offset="0" stop-color="#ffce20" />
      <stop offset="1" stop-color="#fff" stop-opacity=".8" />
    </radialGradient>
    <linearGradient id="linear-gradient" x1="1.9" y1="30.7" x2="25.9" y2="30.7" gradientUnits="userSpaceOnUse">
      <stop offset="0" stop-color="#fff" />
      <stop offset="1" stop-color="#fff" stop-opacity=".8" />
    </linearGradient>
    <linearGradient id="linear-gradient1" x1="13.9" y1="7.2" x2="13.9" y2="52.2" xlink:href="#linear-gradient" />
  </defs>
  <path class="st3" d="M13.9.2c-6.1,0-11,3.1-11,7s4.9,7,11,7h0c6.1,0,11-3.1,11-7S20,.2,13.9.2h0Z" />
  <path class="st4" d="M18.9,56.2h-10c-3.9,0-7-3.1-7-7V12.2c0-3.9,3.1-7,7-7h10c3.9,0,7,3.1,7,7v37c0,3.9-3.1,7-7,7h0Z" />
  <path class="st0" d="M18.9,55.2h-10c-3.3,0-6-2.7-6-6V12.2c0-3.3,2.7-6,6-6h10c3.3,0,6,2.7,6,6v37c0,3.3-2.7,6-6,6h0Z" />
  <path class="st1" d="M23.9,42.2c0,4.7,0,7.1-1.5,8.5-1.5,1.5-3.8,1.5-8.5,1.5s-7.1,0-8.5-1.5c-1.5-1.5-1.5-3.8-1.5-8.5v-25c0-4.7,0-7.1,1.5-8.5,1.5-1.5,3.8-1.5,8.5-1.5s7.1,0,8.5,1.5c1.5,1.5,1.5,3.8,1.5,8.5v25Z" />
  <path class="st5" d="M23.3,6.8c-.6-.8-1.5-1.4-2.4-1.9-1.4-.7-3.3-.7-7-.7s-5.6,0-7,.7c-.9.4-1.7,1.1-2.4,1.9.2-.2.5-.3.7-.5,1.7-1.1,4-1.1,8.7-1.1s7,0,8.7,1.1c.2.2.5.3.7.5Z" />
  <path class="st6" d="M21.3,54.3v.6c0,.7.6,1.3,1.3,1.3s1.3-.6,1.3-1.3v-.6c-.2.5-.7.8-1.3.8s-1.1-.3-1.3-.8Z" />
  <path class="st6" d="M3.9,54.3v.6c0,.7.6,1.3,1.3,1.3s1.3-.6,1.3-1.3v-.6c-.2.5-.7.8-1.3.8s-1.1-.3-1.3-.8Z" />
  <path class="st2" d="M26.9,46.2c0,.6-.4,1-1,1v-6c.6,0,1,.4,1,1v4Z" />
  <path class="st2" d="M.9,42.2c0-.6.4-1,1-1v6c-.6,0-1-.4-1-1v-4Z" />
  <path class="st2" d="M26.9,19.2c0,.6-.4,1-1,1v-6c.6,0,1,.4,1,1v4Z" />
  <path class="st2" d="M.9,15.2c0-.6.4-1,1-1v6c-.6,0-1-.4-1-1v-4Z" />
</svg>