<?xml version="1.0" encoding="UTF-8"?>
<svg id="Layer_1" xmlns="http://www.w3.org/2000/svg" xmlns:xlink="http://www.w3.org/1999/xlink" xmlns:android="http://schemas.android.com/apk/res/android" xmlns:aapt="http://schemas.android.com/aapt" version="1.1" viewBox="0 0 27 57">
  <!-- Generator: Adobe Illustrator 29.4.0, SVG Export Plug-In . SVG Version: 2.1.0 Build 152)  -->
  <defs>
    <style>
      .st0 {
        fill: #323232;
      }

      .st1 {
        fill: url(#linear-gradient1);
      }

      .st2 {
        fill: #828282;
      }

      .st3 {
        fill: url(#radial-gradient);
      }

      .st4 {
        fill: url(#linear-gradient);
      }

      .st5 {
        fill: #ffce20;
      }

      .st6 {
        fill: #ef4e32;
      }
    </style>
    <linearGradient id="linear-gradient" x1="1.5" y1="-73.3" x2="25.5" y2="-73.3" gradientTransform="translate(0 -44) scale(1 -1)" gradientUnits="userSpaceOnUse">
      <stop offset="0" stop-color="#fff"/>
      <stop offset="1" stop-color="#fff" stop-opacity=".8"/>
    </linearGradient>
    <radialGradient id="radial-gradient" cx="13.1" cy="-62.1" fx="22.3" fy="-62.1" r="9.2" gradientTransform="translate(0 -44.2) scale(1 -.9)" gradientUnits="userSpaceOnUse">
      <stop offset="0" stop-color="#ffce20"/>
      <stop offset="0" stop-color="#ffb628"/>
      <stop offset=".4" stop-color="#ffb82e" stop-opacity=".9"/>
      <stop offset=".9" stop-color="#fff7de" stop-opacity="0"/>
      <stop offset="1" stop-color="#fff" stop-opacity="0"/>
    </radialGradient>
    <linearGradient id="linear-gradient1" x1="13.5" y1="-55.6" x2="13.5" y2="-94.5" gradientTransform="translate(0 -44) scale(1 -1)" gradientUnits="userSpaceOnUse">
      <stop offset="0" stop-color="#fff"/>
      <stop offset="1" stop-color="#fff" stop-opacity=".8"/>
    </linearGradient>
  </defs>
  <path class="st4" d="M18.5,52.1h-10c-3.9,0-7-2.8-7-6.3V12.8c0-3.5,3.1-6.3,7-6.3h10c3.9,0,7,2.8,7,6.3v33c0,3.5-3.1,6.3-7,6.3h0Z"/>
  <path class="st0" d="M18.5,51.2h-10c-3.3,0-6-2.4-6-5.4V12.8c0-2.9,2.7-5.4,6-5.4h10c3.3,0,6,2.4,6,5.4v33c0,2.9-2.7,5.4-6,5.4h0Z"/>
  <path class="st3" d="M13.1,5.7c-6.1,0-11,2.8-11,6.2s4.9,6.3,11,6.3h0c6.1,0,11-2.8,11-6.3s-4.9-6.2-11-6.2h0Z"/>
  <path class="st5" d="M22.7,13.5c-.6-.7-1.3-1.8-2.2-2.2-1.4-.6-3.3-.6-7-.6s-5.6,0-7,.6c-.9.4-1.6,1.7-2.3,2.4.2-.2.6-.8.8-1,1.7-1,3.8-1.1,8.5-1.1s6.8.1,8.5,1.1c.2.2.5.7.7.8Z"/>
  <path class="st1" d="M23.5,41.9c0,4.1,0,6.1-1.5,7.4s-3.8,1.3-8.5,1.3-7.1,0-8.5-1.3c-1.5-1.3-1.5-3.3-1.5-7.4v-21.6c0-4.1,0-6.1,1.5-7.4s3.8-1.3,8.5-1.3,7.1,0,8.5,1.3c1.5,1.3,1.5,3.3,1.5,7.4v21.6Z"/>
  <path class="st6" d="M18.3,49.2v1.2c0,1.4,1.2,2.8,2.6,2.8s2.6-1.2,2.6-2.8v-1.2c-.4.9-1.4,1.7-2.6,1.7s-2.2-.7-2.6-1.7Z"/>
  <path class="st6" d="M3.5,49.5v1c0,1.2,1.2,2.4,2.6,2.4s2.6-1,2.6-2.4v-1c-.4.8-1.4,1.4-2.6,1.4s-2.2-.6-2.6-1.4Z"/>
  <path class="st2" d="M26.5,43.2c0,.5-.4.9-1,.9v-5.4c.6,0,1,.4,1,.9v3.6Z"/>
  <path class="st2" d="M.5,39.6c0-.5.4-.9,1-.9v5.4c-.6,0-1-.4-1-.9v-3.6Z"/>
  <path class="st2" d="M26.5,19.1c0,.5-.4.9-1,.9v-5.4c.6,0,1,.4,1,.9v3.6Z"/>
  <path class="st2" d="M.5,15.5c0-.5.4-.9,1-.9v5.4c-.6,0-1-.4-1-.9v-3.6Z"/>
</svg>