<?xml version="1.0" encoding="UTF-8"?>
<svg xmlns="http://www.w3.org/2000/svg" version="1.0" >
  <rect  style="fill: #fff;"/>
  <path d="M12.5,42c-.4,0-.8-.1-1.2-.4s-.5-.6-.5-1v-4.2c-1-.5-1.7-1.3-2.1-2.3s-.7-2.1-.7-3.2V11.1c0-2.5,1.3-4.3,3.8-5.4,2.6-1.1,6.6-1.7,12.2-1.7s9.6.6,12.1,1.7,3.8,2.9,3.8,5.4v19.9c0,1.1-.2,2.2-.7,3.2s-1.2,1.8-2.1,2.3v4.2c0,.4-.2.7-.5,1s-.7.4-1.2.4h-1c-.5,0-.9-.1-1.2-.4-.3-.3-.5-.6-.5-1v-2.8H15.1v2.8c0,.4-.2.7-.5,1-.3.3-.7.4-1.2.4h-1ZM11,21.4h26v-8.7H11v8.7ZM16.3,32.4c.8,0,1.4-.3,1.9-.8s.8-1.2.8-2-.3-1.4-.8-1.9c-.5-.5-1.2-.8-2-.8s-1.4.3-1.9.8c-.5.5-.8,1.2-.8,2s.3,1.4.8,1.9,1.2.8,2,.8ZM31.7,32.4c.8,0,1.4-.3,1.9-.8s.8-1.2.8-2-.3-1.4-.8-1.9-1.2-.8-2-.8-1.4.3-1.9.8c-.5.5-.8,1.2-.8,2s.3,1.4.8,1.9,1.2.8,2,.8Z" style="fill: #9dc384;"/>
</svg>