<svg id="Layer_1" xmlns="http://www.w3.org/2000/svg" version="1.1" viewBox="0 0 1920 1080">
  <path class="st0" d="M1003,626c-21.9,0-42.5-8.5-58-24-32-32-32-84,0-116l58-58,58,58c32,32,32,84,0,116-15.5,15.5-36.1,24-58,24Z"/>
  <path d="M1003,456.3l43.8,43.8c24.2,24.2,24.2,63.5,0,87.7-11.7,11.7-27.3,18.2-43.8,18.2s-32.1-6.4-43.8-18.2c-11.7-11.7-18.2-27.3-18.2-43.8s6.4-32.1,18.2-43.8l43.8-43.8M1003,404.8c-3.1,0-6.3,1.2-8.7,3.6l-63.4,63.4c-39.8,39.8-39.8,104.4,0,144.2h0c19.9,19.9,46,29.9,72.1,29.9s52.2-10,72.1-29.9h0c39.8-39.8,39.8-104.4,0-144.2l-63.4-63.4c-2.4-2.4-5.5-3.6-8.7-3.6h0Z"/>
</svg>