<?xml version="1.0" encoding="UTF-8"?>
<svg xmlns="http://www.w3.org/2000/svg" version="1.1" viewBox="0 0 1920 1080">
  <!-- Generator: Adobe Illustrator 29.2.1, SVG Export Plug-In . SVG Version: 2.1.0 Build 116)  -->
  <defs>
    <style>
      .st0 {
        fill: #fff;
      }
    </style>
  </defs>
  <g id="Layer_2">
    <path class="st0" d="M1077,683v-6.7c-.1,0,19.1-318.8,19.1-318.8l108.4,4.7c5.5.2,30.6,1.3,40.4,1.8,0,0,9.8.4,38.1,3.5,12.5,1.4,22,2.6,28.1,10,2.9,3.5,4,7.1,4.7,9.4,5.9,20.3,8.9,30.5,9.4,42.8,1.6,38.5,18.3,121.9,25.2,152.9,4.6,20.7,8.4,34.2,7.5,55.3-.7,15.1-2.1,39.1-19.1,59.3-4.3,5-16.3,19.2-34.7,21.7-14.2,1.9-21.8-4.7-36.2-9.6-14.8-5.1-39.6-2.3-88.5,3.5-34.9,4.2-42.7,6.5-67.3,7.5-16.8.7-13.5-9-21.1-14.5"/>
  </g>
  <g id="Layer_1">
    <g>
      <path d="M698,703.5c-2.6-22.3-24.7-41.1-46.7-28.7s-8.3,5.1-6.8,7.2c24.4-22.4,52.6,2.4,52.6,30.5,0,48.9-57.4,56.3-64.1,7.5-39.6,3.9-82.6-15.5-93.5-56-9-33.7-12.4-67.6-8.4-102.4s6.3-72.3,42.2-88.8l509.6-140.4c56.8-7.1,119.7-11.2,174.3,8.8,6.8,2.5,13.7,6.6,20.2,8.8,15.5,5.4,23.5,4.5,35.1,18.9s9.7,34.4,15.5,52l27-6,5,24c9.4-2.3,15.3-.3,18.5,9,3.5,10.3,11.2,38.6,12.3,48.8.7,6.5-1.5,11.3-7.6,13.9s-14.3,4.2-16.8,4.2c-5.8.2-10.5-4.4-12.4-9.4-3.2-8.2-10.9-39.4-11.8-48.1s2.2-13.5,11-17l-4.5-17.2-18.5,4.9c5.2,27,11.7,53.7,16.6,80.7,9.4,52,30.8,170.4-24,202.4-5.4,3.2-20.2,8.8-26.2,8.8h-184.5v-37h232v-6s-232,0-232,0v-39h35.5c3.9,0,23.3,13,26,13h179.5v-6h-176.5c-2.5,0-24.5-14-27-14h-37.5v-20h213.5c2.4,0,6.7-4.9,7.9-7.1,10.5-18.2,4.2-65,1.4-86.3-1.7-13.3-4-26.6-6.1-39.9-4.3-26.2-9.4-64.6-16.8-89.2s-15.5-12.8-25.9-15.1c-24.2-5.4-49-5.7-73.5-5.4-36.5.5-74.7,2.7-109.5,14l4,35,20.5-4.8c2.4.4,3.3,12.7,4.6,13.6s3.3,0,4.9.6c5.1,1.8,6.3,4.3,7.9,9.1,2.1,6.2,9.9,35.6,9.7,40.8-.5,12.6-25.5,18.2-30.4,5.9s-10.4-38-10.3-42.8c0-7,5.3-11.2,12.1-11.5l-1.9-7.6-16,2.6c3.8,54.5,1.2,109-3.1,163.4l-.4,89.6-27.5.4c-2.6-4.8-3.4-10.3-5.8-15.2-10.5-22-34-35.2-58.2-27.3.9,2.3,5.3-.2,7.4,0,26.7,1.3,45.9,26.5,48.4,51.7,6.4,63.1-64.8,96.2-94.5,34.3h-276.3c-.4-5.2.6-11.3,0-16.5ZM1069,598l-3-63.5c.5-35.6-4.8-86.4-37.2-107.8-24.2-15.9-54-9.7-79.6-.6l.9,84.3,19.1,91.4,99.9-3.9ZM930,428l-117.9,19.1,2.9,101.9,117.9-7.1-2.9-113.9ZM803,550l-4-100.6-88.9,14.7,5,90.7,87.9-4.9ZM633,560l69.6-5-5.5-88.6-69.1,10.6,5,83ZM616,480c-19.1,3.3-59,2.4-59.8,29.5s2.4,32.2,3.8,44,1.1,10.5,2,11.1l59-3.6-5-81ZM933,582l-371,17,1,22,110.5-5c78.7-3.6,157.4-6.9,236-11,8.2-.4,16.4.5,24.5-1l-1-22ZM1014.7,665.2c-11.9,2-18.2,19.6-17.8,30.2.6,14.8,13,32.8,29.4,25.4,23.5-10.6,18.1-60.7-11.6-55.6ZM661.7,697.2c-14.2,2.5-13.9,29.7,0,32.5,20.6,4.2,22-36.4,0-32.5Z"/>
      <path d="M1236,723c-2.8,7.3-10.9,14.9-17.7,18.8-22.9,13.1-49.2,3.2-62.3-18.3-.3-3.1,1.1-.5,1.5-.5h78.5Z"/>
      <path d="M1105,683v37h-33c3.7-11.9,7.4-24.5,5-37h28Z"/>
      <path class="st0" d="M1069,598l-99.9,3.9-19.1-91.4-.9-84.3c25.6-9.1,55.4-15.3,79.6.6,32.5,21.4,37.7,72.2,37.2,107.8l3,63.5Z"/>
      <polygon class="st0" points="930 428 932.9 541.9 815 549 812.1 447.1 930 428"/>
      <polygon class="st0" points="803 550 715.1 554.9 710.1 464.1 799 449.4 803 550"/>
      <path class="st0" d="M933,582l1,22c-8.1,1.4-16.4.5-24.5,1-78.6,4.1-157.3,7.4-236,11l-110.5,5-1-22,371-17Z"/>
      <polygon class="st0" points="633 560 628 477 697 466.4 702.6 555 633 560"/>
      <path class="st0" d="M616,480l5,81-59,3.6c-.8-.6-1.7-9-2-11.1-1.4-11.8-4.1-32.9-3.8-44,.8-27.1,40.7-26.2,59.8-29.5Z"/>
      <path class="st0" d="M1014.7,665.2c29.7-5.1,35.2,45,11.6,55.6-16.4,7.4-28.8-10.6-29.4-25.4-.5-10.6,5.9-28.2,17.8-30.2Z"/>
      <path class="st0" d="M661.7,697.2c22-3.8,20.6,36.8,0,32.5-13.9-2.8-14.2-30.1,0-32.5Z"/>
    </g>
  </g>
</svg>