<?xml version="1.0" encoding="UTF-8"?>
<svg id="Layer_1" xmlns="http://www.w3.org/2000/svg" version="1.1" viewBox="0 0 176 165">
  <!-- Generator: Adobe Illustrator 29.4.0, SVG Export Plug-In . SVG Version: 2.1.0 Build 152)  -->
  <defs>
    <style>
      .st0 {
        fill: #fff;
      }
    </style>
  </defs>
  <path class="st0" d="M121.4,66h-45.1l-.5,1.2-4.2,6.6-15.3,23.9-.4,2h66.2c0,0,1.6-2.6,1.6-2.6,0,0,21.8-33.1,32.3-49.7s1.7-2.6,2.2-3.9h-89.5l-.9,1.5-9.9,15.5s-24.5,37.6-36.4,56.3c-.8,1.3-2.6,4-2.6,4l-.2,1.1h99.8c.2.7-.3.3-.5.7-1.6,3.1-3.6,5.9-5.4,9s-.2,1-.6,1.4H.4c.6-1.5,2.3-4.3,2.3-4.3,0,0,13.1-20,19.4-29.9,13.4-20.9,26.7-42.1,40.1-62.5s1.6-2.9,2.8-3.9h110.6l.3.5c-.8.9-1.2,2-1.8,2.9-2.5,4.1-5.5,8.4-8.3,12.7-12.2,19.2-36.9,57.6-36.9,57.6,0,0-1.6,2.9-2.6,4.2H37.4c-.2-.7.4-.3.5-.7.9-2.3,2.9-4.8,4.3-7,9.4-14.8,19-29.8,28.6-44.5l2.1-3.3h66.7l-2.9,4.8s-18,28.1-18,28.3h-44.4l.5-1.1,4.5-7.8,1.1-1.7,33.2-.3"/>
</svg>