<?xml version="1.0" encoding="UTF-8"?>
<svg id="layer" xmlns="http://www.w3.org/2000/svg" version="1.1" viewBox="0 0 115.8 115.8">
  <!-- Generator: Adobe Illustrator 29.4.0, SVG Export Plug-In . SVG Version: 2.1.0 Build 152)  -->
  <defs>
    <style>
      .st0 {
        fill: #fbba00;
      }
    </style>
  </defs>
  <path class="st0" d="M57.9,69.3c-4.8,0-9.3.7-14.1,1.7l14.1-27.8,14.1,27.8c-4.8-1.1-9.3-1.7-14.1-1.7M99,87.8L65.4,20.6c-1.4-2.7-4.5-4.8-7.5-4.8s-6.2,1.7-7.5,4.8L16.8,87.8c-1.7,3.8-.7,8.2,2.7,10.6,3.4,2.4,7.9,2.1,11-1,15.1-15.1,40.1-15.1,55.2,0,3.4,2.9,7.5,3.4,11,1,3-2.4,4.1-6.9,2.3-10.6"/>
</svg>