<?xml version="1.0" encoding="UTF-8"?>
<svg id="Layer_1" xmlns="http://www.w3.org/2000/svg" version="1.1" viewBox="0 0 336 343.9">
  <!-- Generator: Adobe Illustrator 29.4.0, SVG Export Plug-In . SVG Version: 2.1.0 Build 152)  -->
  <defs>
    <style>
      .st0 {
        fill: #05a9eb;
      }

      .st1 {
        fill: #0177be;
      }
    </style>
  </defs>
  <path class="st0" d="M175.8,35l4.9,3.6,21.1,38.9c-6.8,4.3-11.4,8.4-16.2,14.8-12.6,16.8-24.8,41.4-36,60-2.2,3.7-4.6,7.5-5.8,11.7h-52L171.8,35h4Z"/>
  <path class="st1" d="M101.8,309c-3.3-2.6-7.7-2.8-11.5-5-13.9-8-9.6-20.2-4.2-32.3l30.2-49.8h50.5l-48.6,79.9-12.4,7.1h-4Z"/>
  <path class="st1" d="M152.8,164c12.4-19.2,22.8-40,35.4-59.1,23.2-35.3,61.8-46.8,101.6-30.4,45.5,18.8,60.2,74.4,28.5,112.5-5.6,6.7-21.4,16.7-29.5,19.5s-2,.8-2.9.3l-21.2-36.4.2-1.4c18.9-8,28.1-26.1,17.4-45.1-7.1-12.7-24.2-15.4-37.4-11.3-19.3,6-29.4,37.4-42.7,51.3h-49.5Z"/>
  <path class="st1" d="M35.8,215c-1.2,2.3-2.4,13.7-5.5,13-3.7-4.9-29.6-31.9-29.5-35.5s23.6-27.4,26.4-32.5c8.4-4.5,5.5,5.8,9.2,10.1h162.6c0,.1,26.7,45,26.7,45H35.8Z"/>
  <path class="st0" d="M234.8,131l58.5,103c5.9,23.2-20.6,35.1-36.5,20.5l-48.6-83.5.7-3.3,25.9-36.7Z"/>
  <path class="st0" d="M105.8,222l-21.5,36c-11.2,14.5-35.7,8.6-38.3-9.8-1.3-9.1,6.7-17.9,8.8-26.2h51Z"/>
</svg>