<svg id="Layer_1" xmlns="http://www.w3.org/2000/svg" version="1.1" viewBox="0 0 268 268" fill="currentColor">
  <path class="st0" d="M162.6,137.8c11.2,2.9,21.5,5.9,30.6,9.1,3.8,7.3,7.1,14.1,10.5,21.2,6.3.2,12.7.2,18.9-.3-1.8-3.9-3.6-7.5-5.5-11.4,6.2,2.9,12,5.8,17.6,9.9,14-3,13.9-7.7,9-12.3-19.2-17.7-67.9-30.8-91.8-36.1,2.4,4.5,9.1,16.9,10.7,20.1" />
  <path class="st0" d="M40.9,125.9c3.5-.8,7.6-1.4,13.1-1.7,3.1-5.7,6.2-11.3,9.5-16.9-16.8.4-25.2,3.3-28.9,5.6-4.1,2.5-2.3,6.9,6.4,13.1" />
  <path class="st0" d="M253.8,161.1c-5.8,26.1-102.2,8.7-118.5,5.4-20.6-4.1-116-28-109.8-52.7-1.9,3.9-3.3,12.8-3.8,16.6-.5,3.9.9,8.5,2.3,10.6,3.7,5.7,11.5,10.9,21.5,15.7-7.3,15.1-29.2,62.6-29.9,86.8-.3,9.8,2,10.3,8.8,6,2-1.2,5.5-4.2,7.5-6.1,4.3-25.5,21.9-63.3,29.7-79.7,9.8,3.8,19.6,7.2,29.7,10.1-9,15.4-35.6,58.4-56.3,76.5-11,9.6-16.3,10.1-20.2,8.3,1.4,1.7,8.8,5.9,11.3,7,4.5,2.1,8,2.9,12.3,1.2,21.6-8.4,57-64,70.7-88.3,18.4,5,35.1,8.3,55,10.8,10.6,16.3,36,56.2,56.4,72.6,8,6.5,12.4,6.8,18.2,4,5.5-2.7,8.6-4.9,11.3-7.2-1.9.5-5.2.6-10.8-2.8-18.7-11.5-47-55.7-52.5-64,9.6.9,18.9,1.1,28.5.7,6.6,15.3,13.1,31.7,17,47.9,2.8,2.9,6.6,7,12.6,10.5,3.2,1.9,4.2,1,4.4-2.5.8-15.2-11.8-46-16.4-57.6,10.1-2.1,15.1-6,17.4-12.3,1.4-3.7,3.8-13.1,3.7-17.6" />
  <path class="st0" d="M100.4,62.8c-16.5,22.8-30.7,46.8-43.8,71.8,5.3,2.5,10.8,4.8,16.2,6.9,3.1-5.9,6-11.3,9.2-17.1,8.2.5,17,1.5,26.2,2.7,2.6-5.3,5.2-10.7,7.7-16.1-8.4-1.2-16.6-2.2-24.4-2.8,5.3-8.8,10.8-17.5,16.6-26,3.3,7.8,6.8,15.5,10.4,23.1,3.2-7.1,6.3-14.3,9.1-21.6-8-18.7-18.7-42.9-22.4-64.8-1-5.9-2-15.4,3.6-19.2-3.9,1.4-11,5.5-14.1,7.8-3.4,2.5-5.2,6.8-5.4,10.8-.4,11.4,5.5,29.4,11,44.6" />
  <path class="st0" d="M103.7,151.4c5.1,1.5,12,3.4,17.3,4.6,4.1-7.7,7.8-15,11.5-22.6,5,9.7,10,18.8,15.4,28.2,7.3,1.3,14.8,2.5,22.2,3.5-5.9-9.9-23.4-41.1-28.3-51.7,4.8-10.9,9.3-22,13.2-33.2,7,11,14.4,23.1,22.1,36.6,8,2.2,15.8,4.6,23.7,7.4-12.1-22.5-25.1-44.2-39.3-65.4,1.6-6.7,3.1-13.8,2.7-20.7-.2-4.2-1.6-8.6-5.1-11.3-3.4-2.6-10.8-6.7-14.1-7.8,4.5,3.7,4.5,10.8,4.1,16-1.7,23.7-20.6,71.6-45.1,116.5" />
  <path class="st0" d="M118.2,40.5c.9,3,5.6,15.7,6.8,18.6,3.1-3.8,5.9-7.2,8.5-10.1,1.3,1.8,2.7,3.7,4.1,5.6,1.6-5.6,4.2-15.9,4.2-21.7,0-9.6-1.6-11.3-9.8-5.5-5.1,3.7-9.6,8.3-13.8,13" />
  <path class="st0" d="M113.8,25.3c1.4,1.5,2.9,3,4.4,4.8,4-3.9,8.2-7.8,13.1-10.5-4-4.4-8.3-8.8-13.3-12-4.8-3.1-6.5-3.3-6.3,4.5.1,3.7,1.3,9.7,2.1,13.3" />
</svg>