<?xml version="1.0" encoding="UTF-8"?>
<svg id="Layer_1" xmlns="http://www.w3.org/2000/svg" version="1.1" viewBox="0 0 171.8 171.8" fill="currentColor">
  <path class="st0" d="M166.4,16.1l-.9,4.6c-12.9.4-17.1,0-23.2,11.8-10.2,19.5-13.9,50.8-41.8,52.7l10,4.5c10,8.3-6.8,27.9-10.5,36.4-5.3,12.2-3.3,23,11.5,24l-1.2,4.8c-13.8-1.2-32.1,2.2-45.3,0-15.5-2.4-5.6-26.4-2-34.9s10.5-17,9.5-26H5.4c.1-1.2-.4-2.7.2-3.8s19.2-14.7,20.5-15c15.4,1.2,33.6,1.5,48.8-.2,23.2-2.6,20.6-43.5,36-55s7-4,8-4h47.5Z" />
</svg>